<?xml version="1.0" encoding="UTF-8" standalone="no"?>
<!-- Created with Inkscape (http://www.inkscape.org/) -->

<svg
   id="svg1339"
   sodipodi:docname="The Moon by Dan Gerhards.svg"
   viewBox="0 0 79.999998 79.999999"
   sodipodi:version="0.32"
   version="1.1"
   inkscape:version="1.4.3 (unknown)"
   width="80"
   height="80"
   xmlns:inkscape="http://www.inkscape.org/namespaces/inkscape"
   xmlns:sodipodi="http://sodipodi.sourceforge.net/DTD/sodipodi-0.dtd"
   xmlns:xlink="http://www.w3.org/1999/xlink"
   xmlns="http://www.w3.org/2000/svg"
   xmlns:svg="http://www.w3.org/2000/svg"
   xmlns:rdf="http://www.w3.org/1999/02/22-rdf-syntax-ns#"
   xmlns:cc="http://creativecommons.org/ns#"
   xmlns:dc="http://purl.org/dc/elements/1.1/">
  <defs
     id="defs1342">
    <linearGradient
       id="linearGradient30537">
      <stop
         id="stop30539"
         style="stop-color:#adadb0"
         offset="0" />
      <stop
         id="stop30541"
         style="stop-color:#b7b7b9;stop-opacity:.38776"
         offset="1" />
    </linearGradient>
    <linearGradient
       id="linearGradient13037">
      <stop
         id="stop13039"
         style="stop-color:#fdfdfe"
         offset="0" />
      <stop
         id="stop13041"
         style="stop-color:#f1f1f2;stop-opacity:.46939"
         offset="1" />
    </linearGradient>
    <linearGradient
       id="linearGradient4385">
      <stop
         id="stop4387"
         style="stop-color:#7d7d7f"
         offset="0" />
      <stop
         id="stop4389"
         style="stop-color:#515056"
         offset="1" />
    </linearGradient>
    <radialGradient
       id="radialGradient31693"
       gradientUnits="userSpaceOnUse"
       cy="620.15997"
       cx="1089.6"
       gradientTransform="matrix(1.7540249,0,0,1.468162,-1818.9582,-270.99403)"
       r="11.192"
       inkscape:collect="always">
      <stop
         id="stop18131"
         style="stop-color:#8c8c8c"
         offset="0" />
      <stop
         id="stop18137"
         style="stop-color:#8c8c8c"
         offset=".67308" />
      <stop
         id="stop18133"
         style="stop-color:#8c8c8c;stop-opacity:0"
         offset="1" />
    </radialGradient>
    <radialGradient
       id="radialGradient31695"
       gradientUnits="userSpaceOnUse"
       cy="362.48001"
       cx="381.48001"
       r="350.79001"
       inkscape:collect="always">
      <stop
         id="stop22526"
         style="stop-color:#ffffff;stop-opacity:.40816"
         offset="0" />
      <stop
         id="stop22532"
         style="stop-color:#dbdbdc;stop-opacity:0"
         offset=".5" />
      <stop
         id="stop22538"
         style="stop-color:#121212;stop-opacity:.12245"
         offset=".81971" />
      <stop
         id="stop22536"
         style="stop-color:#121212;stop-opacity:.35686"
         offset=".90639" />
      <stop
         id="stop22528"
         style="stop-color:#121212;stop-opacity:.7551"
         offset="1" />
    </radialGradient>
    <radialGradient
       id="radialGradient2371"
       xlink:href="#linearGradient13037"
       gradientUnits="userSpaceOnUse"
       cy="525.46997"
       cx="341.70001"
       gradientTransform="matrix(0.81016,0.31654,-0.36613,0.93709,226.179,-29.6637)"
       r="167.42"
       inkscape:collect="always" />
    <radialGradient
       id="radialGradient2378"
       xlink:href="#linearGradient13037"
       gradientUnits="userSpaceOnUse"
       cy="525.46997"
       cx="341.70001"
       gradientTransform="matrix(1.0561,0.17271,-0.35123,2.1477,134.319,-616.681)"
       r="167.42"
       inkscape:collect="always" />
    <radialGradient
       id="radialGradient2417"
       gradientUnits="userSpaceOnUse"
       cy="149.88"
       cx="437.14001"
       gradientTransform="matrix(0.20091,-0.15373,0.28486,0.37229,291.689,99.109)"
       r="229.92999"
       inkscape:collect="always">
      <stop
         id="stop24010"
         style="stop-color:#8b8b8e"
         offset="0" />
      <stop
         id="stop24012"
         style="stop-color:#58575d"
         offset="1" />
    </radialGradient>
    <radialGradient
       id="radialGradient2421"
       xlink:href="#linearGradient4385"
       gradientUnits="userSpaceOnUse"
       cy="467.92001"
       cx="695"
       gradientTransform="matrix(0.79814,0.3869,-0.11176,0.23056,22.402,17.546)"
       r="229.92999"
       inkscape:collect="always" />
    <linearGradient
       id="linearGradient2428"
       y2="52.004002"
       xlink:href="#linearGradient30537"
       gradientUnits="userSpaceOnUse"
       y1="121.46"
       gradientTransform="matrix(0.938,0,0,0.938,-9.615,-11.562)"
       x2="276.38"
       x1="530"
       inkscape:collect="always" />
    <linearGradient
       id="linearGradient2433"
       y2="241.61"
       xlink:href="#linearGradient30537"
       gradientUnits="userSpaceOnUse"
       y1="636.28003"
       gradientTransform="matrix(0.938,0,0,0.938,-717.301,-10.327)"
       x2="1116.4"
       x1="1346.3"
       inkscape:collect="always" />
    <linearGradient
       id="linearGradient2436"
       y2="294.07001"
       xlink:href="#linearGradient30537"
       gradientUnits="userSpaceOnUse"
       y1="588.84003"
       gradientTransform="matrix(0.938,0,0,0.938,-9.615,-11.562)"
       x2="10.688"
       x1="146.08"
       inkscape:collect="always" />
    <radialGradient
       id="radialGradient2555"
       xlink:href="#linearGradient4385"
       gradientUnits="userSpaceOnUse"
       cy="306.29999"
       cx="128.44"
       gradientTransform="matrix(0.95867,0.099013,-0.17219,1.6672,31.454,-242.271)"
       r="229.92999"
       inkscape:collect="always" />
    <linearGradient
       id="linearGradient2557"
       y2="405.89001"
       gradientUnits="userSpaceOnUse"
       y1="563.52002"
       x2="213.07001"
       x1="212.77"
       inkscape:collect="always"
       gradientTransform="matrix(0.9732,0,0,0.9732,-22.823,-24.6811)">
      <stop
         id="stop2347"
         style="stop-color:#4a4a4c"
         offset="0" />
      <stop
         id="stop2349"
         style="stop-color:#626266"
         offset="1" />
    </linearGradient>
  </defs>
  <sodipodi:namedview
     id="base"
     bordercolor="#666666"
     inkscape:pageshadow="2"
     inkscape:window-y="0"
     pagecolor="#ffffff"
     inkscape:window-maximized="0"
     inkscape:window-width="674"
     inkscape:zoom="6.0758846"
     inkscape:window-x="0"
     showgrid="false"
     borderopacity="1.0"
     inkscape:current-layer="svg1339"
     inkscape:cx="28.720098"
     inkscape:cy="58.592291"
     inkscape:window-height="645"
     showborder="false"
     inkscape:pageopacity="0.0"
     inkscape:showpageshadow="0"
     inkscape:pagecheckerboard="0"
     inkscape:deskcolor="#d1d1d1" />
  <g
     id="g2">
    <g
       id="g1"
       transform="matrix(0.11682705,0,0,0.118339,8.9697595e-6,-0.0037245)">
      <path
         id="path2084"
         inkscape:connector-curvature="0"
         style="fill:none"
         d="m 262.529,96.059 c -26.22257,-23.563842 -50.53974,9.64045 -42.76125,24.48969 -12.64225,-14.78284 -24.75514,36.14144 -35.38875,22.81031 5.87356,-14.73877 -25.48622,7.65898 -15.2825,-16.85375 C 182.70989,110.60158 176.19756,80.904616 201.68775,86.419 225.95658,76.143143 236.44768,68.708521 261.159,61.1 247.88326,45.327189 211.95915,54.051851 200.64353,67.413969 188.22001,76.953313 166.37365,70.148103 178.96775,55.3715 152.14656,61.325094 129.178,87.899879 107.04447,104.14353 122.35343,107.91042 84.841467,125.41881 89.099,123.479 c -12.230422,16.2119 -4.685151,19.53076 -24.67225,23.59375 1.596112,12.84131 -33.419683,41.00153 -17.450625,41.42 4.26574,-22.65123 33.952556,-18.22817 10.587875,-8.11375 -10.157393,9.8489 -30.48966,35.8835 -5.276875,14.46625 14.480589,-26.23384 11.929335,19.98149 2.973,3.26 -5.93521,13.9697 -16.354753,25.70495 -8.054375,3.11156 -16.331879,8.56866 -14.728445,28.44278 -4.72275,33.31219 -7.045647,9.65547 -10.588855,-9.79603 -14.396,12.34 -6.30285,15.64085 11.247395,12.85357 7.8835,5.51875 -0.154968,11.58807 -16.09639,25.86871 5.1415,9.56125 18.593951,5.39183 -27.902574,15.12514 2.690625,10.17359 -0.969376,8.0986 8.743543,15.39882 7.752125,20.97516 -18.866235,-17.0697 -5.867158,14.30277 -2.99025,15.81625 3.713914,12.94071 -23.649927,38.11279 0.30825,41.5275 9.339685,-8.89973 12.655581,17.84035 19.31625,23.76375 7.769947,11.47333 -4.031733,42.33019 23.631406,36.19969 -2.293991,-37.66267 15.894774,0.11164 13.038594,5.78406 24.3984,5.92963 -7.032546,-36.24701 15.77,-9.6 10.95908,0.95316 18.95778,4.28034 24.80703,-7.70812 12.90009,16.81705 25.52616,36.79833 6.31922,51.08312 -22.9225,-12.97103 -29.56295,29.56395 -9.39,32.86125 -18.738,-13.37707 10.12244,37.34885 9.11375,12.88375 16.13979,-1.2806 14.70064,42.91603 18.68484,13.99031 5.74252,11.71105 15.9521,5.67083 2.80391,11.71469 17.45399,13.42048 16.02761,-13.1551 0.79,-14.2425 1.90608,-8.30572 18.79956,12.29698 16.44203,-5.57812 14.07012,14.71172 -9.95339,-21.00704 9.25922,-11.37438 20.36281,18.36401 12.63516,1.01417 4.125,-10.21875 -14.89232,-3.15953 -27.05898,-26.99595 -5.495,-35.02125 9.13325,-5.22021 28.09052,9.33641 11.8425,-9.32875 11.07516,6.00194 -3.4122,-14.65987 7.92,-4.6125 2.92768,-15.31466 30.85291,-16.98862 17.9375,2.29125 4.18705,19.15408 -13.46229,0.74003 -12.33,18.51 0.2257,28.23678 -19.98606,-12.33105 -17.14,8.91 4.60653,12.87617 -27.49051,4.64242 0,14.9175 11.61616,13.46879 11.87279,15.27042 13.89,27.88 -15.33623,-3.95655 -13.89533,18.48269 -22.12,12.7225 -5.03869,15.96054 16.94857,25.45019 25.02875,11.0325 -13.07746,-5.64088 21.60062,-5.64206 3.65859,1.95734 14.01066,6.95336 31.23842,-18.74814 4.25891,-12.12109 -26.90252,-5.70148 11.28161,-12.62564 -3.44375,-15.17 22.48495,11.55021 14.35062,-7.30203 9.48875,-19.96125 -19.14997,-8.98777 17.12889,4.61335 9.67875,21.2425 12.88932,5.0451 34.87362,24.63398 28.11,1.37 12.89038,-2.6081 21.44339,-5.44367 8.91,5.48 12.03201,21.38849 20.68259,-3.73888 17.145,-8.89125 l 3.525,0.44703 2.64,2.27422" />
      <ellipse
         id="path1350"
         style="color:#000000;fill:#d1d1d2;fill-rule:evenodd;stroke-width:0.969196"
         cx="342.38681"
         cy="338.38342"
         rx="342.38602"
         ry="337.59427" />
      <path
         id="path31281"
         inkscape:connector-curvature="0"
         style="color:#000000;fill:url(#linearGradient2436);fill-rule:evenodd"
         d="M 21.454,456.099 C -8.8215793,373.45151 -6.7569555,278.54169 31.089215,198.85949 44.127467,216.53492 30.176305,242.03414 47.197,259.229 55.120292,296.73333 71.429918,331.59221 85.581812,367.02884 110.60405,388.69125 153.32309,383.89 174.554,414.079 c 11.86158,14.26596 -9.25074,47.38523 14.675,50.17 20.44096,-31.29606 54.62167,1.93191 65.115,22.0525 -18.148,9.76906 -83.80382,35.6156 -37.34875,56.97125 13.11228,3.9902 33.71227,20.6579 7.7875,11.0625 -22.15111,-2.20427 -62.0082,-14.00292 -75.07375,1.30375 23.01572,5.04159 40.9996,17.59018 49.7525,42.82375 8.85459,24.25232 57.92794,-8.79241 29.52688,23.52672 -19.40651,-0.92954 -41.77643,-15.53753 -44.77235,-28.47828 -13.29613,-1.59014 -32.12682,5.0448 -20.47953,13.94656 -18.45764,-18.09595 -60.6778,-27.94261 -47.1,-57.89125 -9.93019,-17.46337 -4.81053,24.95304 -21.2675,2.3625 -12.697597,-20.20946 -66.276653,-44.78647 -37.056,-71.63 -34.216794,19.31427 -13.088238,-24.93853 -36.859,-24.2 z" />
      <path
         id="path30545"
         inkscape:connector-curvature="0"
         style="color:#000000;fill:url(#linearGradient2433);fill-rule:evenodd"
         d="m 567.459,479.979 c -22.16149,21.40167 34.40538,42.64534 -7.59764,51.60373 -22.35617,4.72516 -12.06844,16.74255 5.0342,15.45064 -12.84604,4.96906 -34.43584,44.6555 -8.06344,21.80829 10.1911,-15.5546 50.66664,-13.60111 22.17829,4.8614 -15.53713,18.68455 -41.36224,24.35391 -63.62688,33.8161 10.84805,22.1002 -29.61574,20.26021 -6.84844,0.10125 8.2245,-12.16006 18.38339,-21.22837 30.80252,-28.17436 7.89835,-30.10161 -42.79958,34.04012 -57.55892,1.35815 -45.12172,-5.94179 33.32846,-27.83148 49.98404,-36.39288 -7.68453,-20.15144 44.45013,-22.45204 11.58799,-28.92669 -20.93859,-11.34364 -7.90095,40.7095 -37.20795,32.04689 -31.28141,13.87662 -63.21744,-5.62937 -93.21377,5.67748 23.29999,-12.39838 67.59508,-17.02327 63.98,-53.52 -25.61786,-3.76911 -29.05026,44.0945 -55.83203,21.36938 -11.63109,5.3786 -4.72374,-26.57862 -25.00227,-15.4428 -23.17774,0.46999 -10.83887,-21.72372 -10.60164,-28.63267 -14.75387,5.76295 -44.68457,18.79407 -27.20672,-9.80157 20.03099,-25.77371 2.42572,-52.70551 -11.31156,-73.48031 12.78252,-5.38878 49.84552,-1.58389 32.38582,-29.86373 -12.83287,-21.3049 10.88676,-27.67455 4.71871,-49.06002 23.05446,-26.72616 64.2968,-35.96474 74.37352,-74.63832 26.29312,-15.26912 59.63867,9.35801 40.24617,38.95004 -21.13893,40.8426 27.31978,62.86774 30.88988,97.82496 5.16914,29.78867 28.72704,58.84574 41.39762,84.58848 22.78675,-6.55588 54.67064,-8.45498 49.36115,24.71818 -14.61784,5.91937 -23.028,-22.71436 -42.19521,-7.99943 -3.30885,0.64948 -8.02043,-1.33163 -10.67344,1.75781 z" />
      <path
         id="path25450"
         inkscape:connector-curvature="0"
         style="color:#000000;fill:#b3b3b5;fill-rule:evenodd"
         d="m 417.709,292.569 c -0.70579,34.8473 -53.91842,58.58216 -80.24804,32.44068 C 306.55754,291.69675 295.34455,239.6897 318.909,199.169 c -2.86906,-42.80867 68.01726,-26.53064 94.49648,-18.45898 39.25258,5.63454 55.38579,56.19162 29.55196,83.01648 -2.80596,12.86361 -15.51723,21.22766 -25.24844,28.8425 z" />
      <path
         id="path30547"
         style="color:#000000;fill:#fbfbfc;fill-rule:evenodd"
         inkscape:connector-curvature="0"
         d="m 490.579,250.579 c -11.84457,15.26761 -40.32064,-18.14372 -34.44,7.52 28.59615,3.38727 -5.32942,18.46288 -4.3825,31.51375 -11.68347,17.9962 21.93963,-10.63517 19.2925,-20.6775 5.77729,-7.03751 16.74953,-9.57722 19.53,-18.35625 z" />
      <path
         id="path29809"
         inkscape:connector-curvature="0"
         style="color:#000000;fill:url(#linearGradient2428);fill-rule:evenodd"
         d="m 500.399,151.149 c 21.09234,-25.9513 -36.69693,-19.87197 -7.52297,-43.01203 7.2939,-26.473358 -35.2935,-48.789566 -9.51847,-75.195126 C 427.69785,2.7091472 360.5067,-0.09539353 298.80858,8.5109774 267.98513,5.4254239 251.8891,29.741754 247.139,55.085 c 34.11484,-4.896229 67.62871,0.509535 101.99439,2.748376 43.16904,5.776592 86.27749,12.918983 128.55561,23.455624 21.18362,17.171775 -25.6644,21.92393 -8.73,41.91 -12.05249,12.80155 16.92921,43.66102 31.44,27.95 z" />
      <path
         id="path2096"
         style="fill:url(#radialGradient2555);fill-rule:evenodd"
         inkscape:connector-curvature="0"
         d="m 311.939,247.359 c 19.67541,-3.03985 50.62012,-22.82661 54.935,-31.14875 -16.55667,2.1033 -73.12462,-28.31638 -28.78047,-38.22219 12.08551,7.85494 41.80925,10.91275 27.17041,21.92201 30.20609,19.15859 33.02979,-27.4978 44.71412,-44.67373 -10.4159,-16.60214 3.71053,-41.50639 -20.14281,-31.56234 1.34287,-22.7859 -27.95606,-5.61459 -28.68125,-31.815 -31.27602,-4.655902 -59.5727,-28.083246 -89.52,-6.18375 -24.0071,2.306236 -54.73627,5.418454 -53.965,32.15875 -16.6551,-7.46668 -28.17508,47.2947 -36.72,17.745 -32.55321,12.43525 -0.0404,-30.68324 -0.71625,-42.87375 C 190.18504,76.048821 216.85481,86.717542 231.599,70.949 246.31589,65.685877 280.19407,56.561438 243.819,53.487 220.25482,50.564711 200.96606,69.340217 178.04697,68.794219 171.16693,56.265021 182.54523,46.623905 162.349,60.163625 146.13047,72.632604 112.8293,85.697979 110.38525,102.3465 129.23651,92.05671 96.621282,125.05956 92.074,118.17025 80.417754,137.17069 80.906691,137.15956 62.07675,150.8215 c 0.635348,13.1589 -29.588562,35.33163 -20.997,40.39625 4.642209,-12.43546 31.250526,-38.3567 13.23425,-10.22875 -11.44765,11.07477 -22.076813,30.16048 -3.144984,10.54859 11.462491,-20.23616 18.457454,8.49387 3.144984,8.66141 -4.98763,8.67103 -15.024418,27.09344 -15.42775,4.45875 -10.208235,7.35311 -12.003884,31.88902 3.5335,25.97875 -1.074925,10.83282 -27.268838,19.12542 -14.30475,35.9425 11.180006,-9.50158 6.493586,-28.25077 9.558094,-4.24766 27.347749,5.18443 -8.140459,28.47119 14.894906,43.53766 1.313871,10.96419 -12.259202,6.14733 -8.29475,25.615 -19.14596,18.60628 13.630429,12.87583 10.91475,21.545 22.990604,9.63427 6.229565,58.81006 34.061,55.02 -1.401175,-24.24595 17.7849,-13.95069 6.11,0.88 7.40418,21.33387 31.36017,0.39242 13.56359,-14.89328 6.85164,9.19082 15.14297,11.23827 16.12641,7.90328 9.47799,3.84494 34.7386,-11.334 25.6423,11.71746 14.44425,15.23216 60.39562,38.79206 61.12739,25.68692 -0.68252,-19.03157 10.08982,-11.15648 18.03031,-19.06438 17.90003,-1.89951 2.49482,27.37997 -4.37,27.94 -4.61481,17.0409 -13.36918,8.77925 -18.59375,3.43375 -5.48089,12.23798 26.55745,15.20928 -3.23625,12.28625 -1.55597,18.31839 33.53411,-18.35063 44.74176,-25.37646 24.98631,-21.8602 53.75591,-45.52352 58.30824,-80.29354 16.41914,4.01802 42.6048,-2.21407 13.63937,-10.325 9.82222,-8.29002 8.92163,-32.75702 23.04063,-10.635 10.32161,-14.30426 7.82913,-24.07563 -7.54656,-21.88141 -3.70268,-15.33017 17.70457,-22.1469 -2.82844,-23.67109 18.19562,-7.15786 29.48555,-5.88875 52.295,-12.0775 14.49395,7.96492 50.16249,31.80654 54.15,6.11 -6.83516,-12.19346 16.61481,-13.74047 -8.74,-13.1 -7.56157,12.2453 -12.05108,-8.89662 2.48328,-5.86766 -26.95382,1.66074 -10.76782,-30.57353 2.33422,-10.94484 -6.46499,13.36963 13.70547,15.88172 15.2725,2.8425 10.44382,-5.35159 -2.08066,-18.85436 -3.19125,-2.68625 -13.72858,4.45073 -16.95953,-14.7498 -0.99516,-2.71125 -0.24158,-19.53842 -17.25591,0.62982 -32.15859,-14.73484 -1.69287,19.87645 -8.15038,8.0041 -24.77562,6.12625 5.20997,-22.57478 -23.67326,-11.01875 -3.92813,-2.15766 -17.9484,5.91775 -17.78291,20.83537 -12.9,37.185 -22.94973,15.041 2.45266,-38.75914 -27.72125,-21.02125 -15.86383,3.49537 -4.82782,-23.2794 -26.92875,-8.895 z m -92.68,122.97 c -12.07189,7.80272 -1.88848,43.57087 -15.76,23.32 -19.13401,3.31583 -0.60323,-42.37225 6.2,-18.37 1.6482,-3.7849 5.81974,-5.23838 9.56,-4.95 z" />
      <path
         id="path1512"
         style="fill:url(#linearGradient2557);fill-rule:evenodd;stroke-width:0.9732"
         d="m 144.26571,396.69504 c 16.51771,7.30052 -2.62173,20.10379 17.40082,21.48096 -0.28659,15.74124 1.51189,34.99705 -21.77049,29.1741 -13.8696,13.27518 -14.93294,22.21673 -3.36849,37.26382 4.48939,17.1987 27.62878,3.8934 26.40003,27.13221 12.50636,-0.27689 15.63721,7.61167 22.29616,12.55337 -0.65895,-11.95828 1.35299,-13.72562 -11.65011,-18.38223 4.81386,-3.52665 28.74708,0.93222 16.70374,-15.55782 13.085,-5.72327 13.85436,16.35885 25.59639,2.40016 -13.11721,-11.28635 -18.44928,-21.78379 -27.94057,-20.953 -14.51906,-26.50949 13.07014,-30.27556 28.81645,-30.56821 -11.3829,-5.37286 -1.40585,-20.66549 7.50702,-15.90696 7.80223,-24.77695 24.79119,23.26615 1.8868,17.24998 -0.74437,18.72808 -13.8394,18.43935 -19.25477,9.07022 -15.37988,19.61239 16.41841,32.37621 13.95813,51.79979 -13.14321,-4.27002 -15.3332,17.93194 -20.69024,12.88881 -3.30158,32.38547 36.82067,-10.84759 26.85926,13.26624 9.42815,-2.54628 13.60825,-2.51326 20.56752,-13.38697 -19.34089,1.96557 -36.40028,-4.75521 -16.95588,-14.64514 1.43478,0.50465 36.7136,12.75308 32.42094,5.06049 16.04053,-5.45123 41.23925,-8.67686 47.52014,-5.20161 2.41013,-11.17943 21.37395,10.66055 16.22081,-12.16743 15.26558,-7.2972 -4.37732,-22.49922 -7.86346,-20.953 -2.00136,-13.4597 3.83816,-26.25837 17.09791,-37.84288 4.37188,-21.04633 -0.59628,-14.45622 -16.22203,-13.68806 -16.96282,-6.62855 4.01216,-26.19768 4.80487,-6.1126 9.05401,-15.34458 -48.36838,-49.64314 -27.21067,-37.64825 -36.73124,16.84478 -16.56045,-64.07472 -56.22146,-43.37218 -22.97365,11.63894 -16.6922,36.95165 -23.75644,54.01606 -13.99668,2.66915 3.97248,35.99086 -11.25109,14.66982 -10.02498,-10.58099 -56.92353,-31.39324 -61.90129,-1.63969 z"
         inkscape:connector-curvature="0" />
      <path
         id="path49549"
         style="color:#000000;fill:#e5e5e6;fill-rule:evenodd"
         inkscape:connector-curvature="0"
         d="m 581.249,236.269 c 14.0034,9.03598 17.89465,-5.59864 15.92,13.81 9.90348,-11.54793 27.21734,-12.62036 17.40625,6.1875 -11.10971,0.61049 17.20931,14.26492 -0.30625,14.0925 13.05126,12.48763 -7.5022,32.12894 -10.07719,6.62891 C 591.00182,265.92699 587.20926,251.45643 581.249,236.269 Z" />
      <path
         id="path2127"
         inkscape:connector-curvature="0"
         style="color:#000000;fill:url(#radialGradient2421);fill-rule:evenodd"
         d="m 399.969,171.239 c 26.36943,0.20103 18.54567,-52.43021 53.27,-29.7 10.65812,13.11746 51.24619,12.08765 20.09,-4.36 -20.9238,-13.57569 18.52254,-19.07132 12.38875,-6.355 -13.96,3.22491 10.95791,27.51203 17.0175,7.795 1.67805,11.92471 6.08898,20.06848 5.225,34.9825 20.99901,-3.10684 11.65552,14.43495 20.9375,23.78375 -14.69541,10.34296 10.88559,27.62488 -4.34703,39.26719 4.82728,6.13962 19.52096,-2.2143 10.80516,12.255 22.58175,9.85588 6.79596,-24.26793 25.69453,-7.96375 -7.42661,-14.95733 -3.88308,-34.66795 10.08859,-15.56469 -14.63958,16.22883 26.7106,10.50563 4.36,25.33 4.3348,17.28452 7.85575,27.19084 24.895,30.56 5.11579,7.68214 7.12658,18.36721 22.26828,21.08844 0.61949,15.20708 15.08279,35.22624 29.75797,33.45656 -1.15225,25.05262 12.03584,60.04887 -7.05125,86.065 -8.40229,12.42011 -14.58654,41.18022 -23.58,33.18 0.65882,18.74354 -23.85658,26.97921 -21.50406,5.20906 5.38583,-20.17642 27.64411,-11.70993 32.52703,-33.58234 -16.32085,0.0707 -25.54687,-9.25166 -38.29047,2.03578 -3.58855,-8.30185 -1.44142,-30.77066 6.8725,-21.89875 -16.56847,11.74089 22.39959,5.47826 -2.10375,-7.925 -15.76519,18.31332 -26.98562,-10.46333 -4.57125,-2.34875 -23.09953,-9.86442 2.38931,-35.01221 1.12328,-8.20953 10.23265,-15.64617 -16.7122,-25.50227 -5.84203,-31.26172 6.70017,-13.92124 21.02172,-57.65462 19.55875,-18.16875 8.66986,-8.2422 4.89774,-39.35712 -3.3825,-21.66125 -20.54312,-2.7656 2.07771,38.02834 -20.5025,24.30625 8.34623,18.61269 -17.01323,-4.12043 -23.58,3.1075 -0.87939,-14.27295 -17.23706,-20.96266 -10.165,-0.5125 -15.13676,14.65489 -23.67426,63.45124 7.24625,62.31125 25.8868,14.39179 3.54368,45.0061 9.34375,69.55875 -14.60225,20.55909 2.22585,-27.60874 -22.7875,-11.41125 -17.1969,-25.59242 7.9057,24.55015 -13.0225,3.55125 -6.76117,-4.71095 14.21732,-17.26839 -4.36,-9.6 -13.38357,-19.59555 3.21482,-35.65177 17.13875,-40.1225 -8.21257,-24.62767 -25.11582,15.38539 -24.3775,-16.99625 -10.26425,-6.40706 -22.87814,2.03524 -17.22125,-20.61125 -19.45545,5.27296 36.24607,-31.75609 -1.59,-28.72 -4.06053,8.57077 -18.53613,-4.23917 -26.16797,-6.89516 4.86273,-14.5673 14.83954,14.2047 13.78797,-8.92484 -13.0659,-22.47527 -11.53494,21.36259 -15.71406,-8.96609 -7.84959,-14.23463 11.77898,-21.74474 -5.24594,-35.57391 9.44002,-2.24608 -15.73843,-31.76838 6.99,-20.96 2.77321,-7.19982 14.44558,-19.0871 29.69,-10.48 6.02709,-16.49602 -19.73161,4.48999 -13.35,-11.70375 -24.56201,15.5092 -55.94516,-26.58129 -61.76,-3.13625 -0.60453,-11.92525 -10.55584,-16.77923 -20.21484,-2.80266 -11.81688,0.90178 -26.60782,-14.96788 -4.58344,-8.87468 -7.36518,-18.29991 20.67692,-49.18934 -5.45547,-49.20782 -1.28932,-4.25222 -3.51805,-9.19876 -0.30625,-13.34484 z" />
      <path
         id="path2129"
         style="color:#000000;fill:#504f55;fill-rule:evenodd"
         inkscape:connector-curvature="0"
         d="m 656.719,239.349 c 2.84742,6.24328 10.61815,30.50718 0.44375,26.2425 9.23937,28.36394 -27.37892,29.41037 -35.245,5.96 -5.93357,-8.85931 -12.71289,-16.55562 -2.15875,-15.10625 -12.04874,-15.12096 -11.22514,-55.65876 20.37,-41.54625 8.55885,8.10206 13.50385,19.22056 20.09,28.82" />
      <path
         id="path2133"
         style="color:#000000;fill:url(#radialGradient2417);fill-rule:evenodd"
         inkscape:connector-curvature="0"
         d="m 490.789,73.429 c 2.99535,21.437627 -9.66617,5.333686 -22.94063,11.269219 3.83725,14.029278 -15.47023,-9.707127 -14.22062,7.924531 -14.60497,23.06927 -49.03325,1.924181 -64.83609,-16.346094 5.32185,-9.452727 -23.51291,9.068853 -21.13266,-11.585656 -24.46814,-15.26459 -63.77528,8.037671 -75.98,1.748 33.39819,-14.512143 -31.92421,4.575393 -9.40594,-7.837766 -13.04821,-3.753156 0.28185,-14.625207 -21.36406,-10.325734 14.4312,-9.15517 43.33621,-0.142785 63.70531,-15.178984 -0.32096,30.003902 37.36183,-3.699615 44.82844,13.507734 9.28043,2.212115 39.5046,29.060029 30.59625,7.4465 13.83466,-2.667161 23.19089,12.51166 35.36625,2.015 16.94067,-2.025767 36.7652,9.622597 54.56,11.61675 z" />
      <path
         id="path2159"
         style="color:#000000;fill:#4f4f4f;fill-rule:evenodd"
         inkscape:connector-curvature="0"
         d="m 34.924,348.079 c -23.710291,19.81469 17.42739,44.76358 8.250469,8.38125 -0.923776,-3.96677 -3.93753,-7.86444 -8.250469,-8.38125 z" />
      <ellipse
         id="path2182"
         style="color:#000000;fill:#4d4d53;fill-rule:evenodd;stroke-width:0.938"
         cx="332.28546"
         cy="76.262352"
         rx="9.6064072"
         ry="5.0215311" />
      <path
         id="path2184"
         style="color:#000000;fill:#5d5c63;fill-rule:evenodd"
         inkscape:connector-curvature="0"
         d="m 354.559,333.669 c 4.44067,-23.02884 9.7293,-5.60894 20.42,-8.61359 -18.97182,-10.1092 4.3859,-21.77387 5.96094,-1.51813 0.21289,-25.02525 17.42399,-5.50132 7.67906,9.26172 7.05941,11.61155 -18.5868,13.65501 -26.35844,21.70703 -9.28918,-2.78804 -15.61225,-12.56286 -7.70156,-20.83703 z" />
      <path
         id="path2131"
         style="color:#000000;fill:#5f5e64;fill-rule:evenodd"
         inkscape:connector-curvature="0"
         d="m 542.319,150.279 c 21.33715,1.10919 0.37394,18.61893 -6.585,3.98875 7.37971,9.76736 -11.06674,4.84434 0.475,13.47125 -23.2911,0.3685 -13.31738,-23.23942 -34.06,-20.08 7.20486,-9.78512 21.42536,-8.80574 13.16375,-19.26375 13.12744,0.45549 24.8615,3.8746 16.81234,15.51484 l 3.55516,2.59266 z" />
      <path
         id="path25476"
         style="color:#000000;fill:#5f5e64;fill-rule:evenodd"
         inkscape:connector-curvature="0"
         d="m 668.079,295.249 c 0.43745,14.95891 -6.55445,41.07162 -4.37,55.42875 16.70556,17.64533 -4.86896,-24.15109 6.84125,-24.24375 -1.33828,-11.21902 9.76674,9.00521 3.63875,-11.975 6.95348,-7.69626 -1.26537,-13.39038 -6.11,-19.21 z" />
      <path
         id="path25474"
         style="color:#000000;fill:#69686f;fill-rule:evenodd"
         inkscape:connector-curvature="0"
         d="m 592.099,444.579 c -14.74193,11.1959 16.92593,26.94604 -10.46562,33.43844 10.86458,-7.44939 -4.25516,-44.39639 10.46562,-33.43844 z" />
      <path
         id="path25472"
         style="color:#000000;fill:#5f5e64;fill-rule:evenodd"
         inkscape:connector-curvature="0"
         d="m 578.999,117.959 c -7.73763,-4.23568 -41.87445,-40.449921 -30.6925,-18.35125 10.07998,-0.85461 7.53943,35.6568 16.7125,22.72125 -16.46232,-18.59719 4.65646,-5.99372 13.98,-4.37 z" />
      <path
         id="path25468"
         style="color:#000000;fill:#5f5e64;fill-rule:evenodd"
         inkscape:connector-curvature="0"
         d="m 588.599,116.649 c -6.79388,-16.19679 -13.9014,1.62371 0,0 z" />
      <path
         id="path2137"
         style="color:#000000;fill:#56555b;fill-rule:evenodd"
         inkscape:connector-curvature="0"
         d="m 146.709,562.479 c -19.72975,-13.71973 -15.59051,18.00789 1.43125,5.44125 z" />
      <path
         id="path32057"
         style="color:#000000;fill:#6b6a71;fill-rule:evenodd"
         inkscape:connector-curvature="0"
         d="m 147.579,544.139 c 13.65322,-8.61882 -12.06244,-32.47595 13.68625,-20.885 9.44952,-1.92708 -0.13232,16.19681 16.9725,6.38094 -5.62407,11.59847 -0.42336,32.55661 -15.64375,10.15406 -9.17665,-10.14597 -5.8767,5.26362 -15.015,4.35 z" />
      <path
         id="path32055"
         style="color:#000000;fill:#6b6a71;fill-rule:evenodd"
         inkscape:connector-curvature="0"
         d="m 190.369,537.149 c 15.18374,28.41186 13.66109,-22.45455 0,0 z" />
      <path
         id="path32053"
         style="color:#000000;fill:#6b6a71;fill-rule:evenodd"
         inkscape:connector-curvature="0"
         d="m 218.319,533.659 c 7.69395,9.55869 20.94551,8.68588 0,0 z" />
      <path
         id="path32051"
         style="color:#000000;fill:#6b6a71;fill-rule:evenodd"
         inkscape:connector-curvature="0"
         d="m 227.049,551.999 c -25.68715,4.20246 48.10111,15.22683 10.73875,0.965 -3.49025,-1.34142 -7.13833,-0.88411 -10.73875,-0.965 z" />
      <path
         id="path32049"
         style="color:#000000;fill:#6b6a71;fill-rule:evenodd"
         inkscape:connector-curvature="0"
         d="m 160.679,573.829 c -13.73626,-3.76813 1.00389,22.2249 0.165,3.7275 z" />
      <path
         id="path32047"
         style="color:#000000;fill:#6b6a71;fill-rule:evenodd"
         inkscape:connector-curvature="0"
         d="m 110.029,519.689 c -20.380571,0.47982 11.45105,17.53262 0,0 z" />
      <path
         id="path32045"
         style="color:#000000;fill:#6b6a71;fill-rule:evenodd"
         inkscape:connector-curvature="0"
         d="m 110.029,542.389 c -1.5314,-19.96011 -19.784379,-2.47159 -9.5425,1.24125 13.20049,-11.42365 12.42427,19.82788 12.7325,1.69328 z" />
      <path
         id="path32043"
         style="color:#000000;fill:#6b6a71;fill-rule:evenodd"
         inkscape:connector-curvature="0"
         d="m 119.639,477.769 c -7.62025,7.23718 12.30011,13.38291 11.63438,24.02922 1.85184,-8.803 -5.2529,-18.52152 -11.63438,-24.02922 z" />
      <path
         id="path32041"
         style="color:#000000;fill:#6b6a71;fill-rule:evenodd"
         inkscape:connector-curvature="0"
         d="m 48.024,427.119 c 13.867331,28.30935 -6.901103,-28.45359 -11.995078,-12.04922 2.078017,5.69337 7.655648,8.45553 11.995078,12.04922 z" />
      <path
         id="path32039"
         style="color:#000000;fill:#6b6a71;fill-rule:evenodd"
         inkscape:connector-curvature="0"
         d="m 97.799,416.639 c -5.119991,11.77514 -3.533289,30.8999 6.99,9.6 l -2.5575,-3.8175 z" />
      <path
         id="path32037"
         style="color:#000000;fill:#56555b;fill-rule:evenodd"
         inkscape:connector-curvature="0"
         d="m 20.514,337.169 c -12.5314108,20.06778 14.353654,11.80602 0,0 z" />
      <path
         id="path34267"
         style="color:#000000;fill:#a8a7aa;fill-rule:evenodd"
         inkscape:connector-curvature="0"
         d="m 413.939,127.569 c -1.16962,24.46989 -33.46023,-14.27529 -25.95375,20.5625 7.92562,8.47615 23.71657,49.7107 0.63375,38.8275 -19.82648,-18.53097 -28.21603,-5.7689 -20.09,10.48 -20.47032,-9.38227 -29.16963,-39.09821 3.17875,-33.54375 15.55572,-14.69434 -27.23635,10.49104 -10.41375,-14.3975 -11.55506,-2.99698 -44.99664,-23.40761 -11.105,-24.54875 9.01301,-3.29133 4.01983,-21.40512 20.09,-7.86 17.00198,-1.96693 24.81247,-17.991751 28.82,6.99 7.66434,-1.92988 9.67074,-17.97867 14.84,3.49 z m -51.93,45.41 c -14.45643,17.5804 -14.23365,-17.06134 0,0 z m 23.99,-20.74 c -9.80556,17.65364 -8.25866,-16.99098 0,0 z" />
      <ellipse
         id="path34269"
         style="color:#000000;fill:#959595;fill-rule:evenodd;stroke:#b9b9b9;stroke-width:1.98696"
         transform="rotate(12.319246)"
         cx="439.32709"
         cy="-12.64767"
         rx="11.115399"
         ry="7.4102659" />
      <ellipse
         id="path34997"
         style="color:#000000;fill:#a7a7a7;fill-rule:evenodd;stroke:#cacaca;stroke-width:1.73248"
         transform="matrix(0.55470664,0.832046,-0.84924675,0.52799618,0,0)"
         cx="411.59052"
         cy="-336.52209"
         rx="12.74103"
         ry="8.5124025" />
      <ellipse
         id="path34999"
         style="color:#000000;fill:#959595;fill-rule:evenodd;stroke:#b9b9b9;stroke-width:2.69447"
         transform="matrix(0.81008923,0.58630661,-0.56867838,0.82255997,0,0)"
         cx="419.44394"
         cy="-168.50987"
         rx="8.008194"
         ry="5.596117" />
      <ellipse
         id="path35005"
         style="color:#000000;fill:#cacaca;fill-rule:evenodd;stroke-width:0.956207"
         transform="matrix(-0.31908549,0.94772594,-0.90504803,-0.42530937,0,0)"
         cx="85.126648"
         cy="-749.45294"
         rx="12.682551"
         ry="6.7491941" />
      <ellipse
         id="path35733"
         style="color:#000000;fill:#cdcdcd;fill-rule:evenodd;stroke-width:0.956204"
         transform="matrix(-0.46619925,0.88467975,-0.82560774,-0.5642445,0,0)"
         cx="31.027287"
         cy="-776.32111"
         rx="12.68235"
         ry="6.7492647" />
      <ellipse
         id="path35735"
         style="color:#000000;fill:#e7e6e8;fill-rule:evenodd;stroke:#a9a9a9;stroke-width:2.38133"
         cx="422.65823"
         cy="259.22672"
         rx="4.3227091"
         ry="4.3226757" />
      <path
         id="path49567"
         style="color:#000000;fill:#ececed;fill-rule:evenodd"
         inkscape:connector-curvature="0"
         d="m 431.989,441.779 c -19.26297,12.21503 6.30405,15.39629 0,0 z" />
      <path
         id="path18151"
         style="color:#000000;fill:url(#radialGradient2378);fill-rule:evenodd"
         inkscape:connector-curvature="0"
         d="m 468.969,506.859 c 38.16747,-5.71958 -43.53951,30.95745 -5.045,4.36875 l 2.13719,-2.33953 z" />
      <path
         id="path18149"
         style="color:#000000;fill:#ececed;fill-rule:evenodd"
         inkscape:connector-curvature="0"
         d="m 512.809,358.029 c 9.19791,13.53316 -38.72178,30.17859 -8.91125,46.23 17.80991,1.74672 20.70771,17.95702 35.99867,3.99912 19.64238,20.71653 -29.48238,18.27049 -13.04742,43.65088 13.8499,19.73481 -32.16605,53.59156 -37.03328,43.50406 14.46038,-12.59636 43.03647,-27.40218 15.80328,-42.51406 5.20935,-16.33235 5.48908,-26.23388 -6.18,-21.65 1.49027,-30.51538 -30.4755,-16.63043 -38.73422,-2.87188 -7.33941,-15.77065 -0.43576,-33.78727 17.51531,-20.98671 8.3512,-16.49627 -22.4688,-21.28738 0.27141,-38.07141 7.12849,-14.05608 24.77257,3.80554 34.3175,-11.29 z" />
      <path
         id="path18147"
         style="color:#000000;fill:#ececed;fill-rule:evenodd"
         inkscape:connector-curvature="0"
         d="m 447.539,328.429 c -25.63583,-30.56625 -29.95829,25.52689 -10.095,27.5925 7.23093,-8.83484 17.46988,-14.32555 10.095,-27.5925 z" />
      <path
         id="path18145"
         style="color:#000000;fill:#ececed;fill-rule:evenodd"
         inkscape:connector-curvature="0"
         d="m 427.589,387.669 c 0.60882,9.46411 -12.15368,20.54649 -15.93875,30.3675 -11.70797,1.05116 6.84796,-27.33339 -0.525,-37.685 2.35486,-16.68896 12.91185,3.43836 16.46375,7.3175 z" />
      <path
         id="path18143"
         style="color:#000000;fill:#ececed;fill-rule:evenodd"
         inkscape:connector-curvature="0"
         d="m 405.359,448.189 c -10.05749,13.07321 -37.50447,-16.99585 -11.8,-0.41 3.91209,0.63094 7.8637,0.34781 11.8,0.41 z" />
      <path
         id="path18141"
         style="color:#000000;fill:url(#radialGradient2371);fill-rule:evenodd"
         inkscape:connector-curvature="0"
         d="m 295.439,561.809 c -18.18002,-25.2645 -39.91766,-47.97974 -51.6775,-77.33625 -7.81769,-22.47978 -19.2629,-1.33939 -1.43938,5.64625 6.02293,23.96217 38.31522,61.56998 44.70288,67.10289 -6.60547,-19.41924 -51.66414,-12.24625 -14.256,-6.95289 34.57186,15.21085 -41.4905,-3.72512 -0.9875,10.39875 -4.21017,-1.70452 -29.6186,-0.73755 -5.6025,4.3375 24.37731,2.42252 -20.16645,15.32345 6.66896,17.15967 -15.86371,14.67008 14.03545,-3.7824 7.85229,8.13658 12.7797,6.93345 -31.43047,46.85236 -28.52,53.49125 20.27228,-9.82029 31.5423,-45.28011 44.49082,-50.06523 2.998,15.33491 -4.02373,43.79116 7.27531,49.5505 12.27735,-6.31118 -1.40706,-47.07424 13.58121,-22.55527 -3.06995,-25.16707 16.41601,24.63793 9.80579,-4.46109 -15.19989,-24.88806 19.79165,-10.11624 3.19234,4.61781 13.58096,13.39594 24.18413,-8.24698 41.50006,-4.8541 17.78555,-7.39394 -10.96683,-12.36057 12.28822,-8.02637 -7.40971,-12.84333 35.234,2.75894 7.74188,-11.97094 0.63201,-11.56231 -13.28428,-0.42461 -16.49688,-7.11156 -3.06379,15.84089 -13.24859,11.95924 -3.6775,-5.58781 -2.59378,-4.39851 -32.48945,0.66281 -7.74977,-2.96022 15.5566,9.5318 53.22961,-13.32134 32.23727,-16.94947 -2.30599,12.22075 -54.505,5.81363 -18.4575,3.6575 16.78375,-5.40852 11.47221,-16.52575 27.4475,-15.7575 16.60853,-2.94137 58.20248,-15.15012 54.7349,-24.94996 -17.57298,11.15556 -63.32433,29.05755 -69.5549,20.61996 18.22459,5.63984 40.66836,-18.55305 8.9925,-5.21859 -5.37827,-13.19649 42.68335,-25.30793 33.35967,-42.51809 19.52748,3.80725 30.16363,-29.74784 8.62533,-15.59582 -7.6003,25.3396 -37.84956,-12.26824 -33.16609,13.73627 7.40106,2.97775 11.28216,19.09138 18.13609,6.77873 2.00702,17.62469 -30.83495,17.32161 -27.93125,4.84984 -11.23857,0.18187 -10.18399,-11.35985 -21.49453,-10.66921 11.39811,-7.243 40.0101,-61.62598 18.0157,-29.59959 -2.79757,15.56061 -20.25061,18.01754 -16.23336,4.76115 -8.66892,10.82586 -8.71321,52.52367 -18.51015,20.58187 -21.75507,23.8333 3.12492,-27.86467 -13.03016,-23.05781 -16.46197,-20.35918 15.98148,36.23884 -6.68836,14.17963 -9.54786,13.61504 -15.95553,16.50455 -26.39101,14.62037 -4.49848,7.88496 -22.94014,-6.92372 -30.33641,3.76344 -27.39603,-5.0013 17.71432,29.79347 6.86687,25.25672 17.58176,34.21119 -29.04664,-16.72942 -28.43218,-33.38625 -16.47443,-5.30046 -6.19009,-52.28718 -22.97811,-36.28051 12.24326,20.85189 21.3234,45.82469 34.47545,67.23785 14.41318,12.00466 26.58014,34.1502 5.88029,9.13885 -7.62986,-10.17058 -25.65109,-29.20087 -8.37746,-6.32596 8.54305,10.27443 18.85862,20.50681 24.11717,32.56711 z" />
      <path
         id="path18160"
         style="color:#000000;fill:#e3e3e3;fill-opacity:0.44643;fill-rule:evenodd"
         inkscape:connector-curvature="0"
         d="m 490.249,123.089 c 2.40881,33.7167 -16.09183,62.23023 -21.12062,95.16984 -0.45361,29.2035 13.53406,-34.93849 20.34062,-45.03984 4.34977,-26.52193 9.02454,-66.00663 11.57,-85.02 -3.00904,11.749385 -10.88489,22.76501 -10.79,34.89 z" />
      <ellipse
         id="path50311"
         style="color:#000000;fill:#54535a;fill-rule:evenodd;stroke-width:7.57674"
         cx="294.48795"
         cy="509.96085"
         rx="9.1084347"
         ry="7.2558985" />
      <ellipse
         id="path51070"
         style="color:#000000;fill:#e7e6e8;fill-rule:evenodd;stroke:#a9a9a9;stroke-width:2.38133"
         cx="475.14825"
         cy="338.27069"
         rx="4.3227091"
         ry="4.3226757" />
      <ellipse
         id="path51072"
         style="color:#000000;fill:#e7e6e8;fill-rule:evenodd;stroke:#a9a9a9;stroke-width:2.38132"
         cx="501.07559"
         cy="256.75671"
         rx="3.3411925"
         ry="4.3226757" />
      <ellipse
         id="path51074"
         style="color:#000000;opacity:0.65803;fill:#959595;fill-rule:evenodd;stroke:#b9b9b9;stroke-width:2.69448"
         transform="matrix(0.99929787,0.03746701,-0.01587895,0.99987392,0,0)"
         cx="308.42276"
         cy="181.0041"
         rx="8.0082502"
         ry="5.5960979" />
      <ellipse
         id="path51076"
         style="color:#000000;fill:#94939a;fill-opacity:0.65476;fill-rule:evenodd;stroke-width:0.899791"
         cx="278.76999"
         cy="470.11121"
         rx="5.7948799"
         ry="6.0402136" />
      <ellipse
         id="path51806"
         style="color:#000000;fill:#94939a;fill-opacity:0.65476;fill-rule:evenodd;stroke-width:0.899791"
         cx="267.04001"
         cy="416.08121"
         rx="5.7948799"
         ry="6.0402136" />
      <ellipse
         id="path51808"
         style="color:#000000;fill:#94939a;fill-opacity:0.65476;fill-rule:evenodd;stroke-width:0.899791"
         cx="262.10001"
         cy="418.55121"
         rx="5.7948799"
         ry="6.0402136" />
      <ellipse
         id="path51810"
         style="color:#000000;fill:#94939a;fill-opacity:0.65476;fill-rule:evenodd;stroke-width:0.899791"
         cx="269.51001"
         cy="463.01123"
         rx="5.7948799"
         ry="6.0402136" />
      <ellipse
         id="path52538"
         style="color:#000000;fill:#94939a;fill-opacity:0.65476;fill-rule:evenodd;stroke-width:0.899791"
         cx="186.76001"
         cy="437.07123"
         rx="5.7948799"
         ry="6.0402136" />
      <ellipse
         id="path52540"
         style="color:#000000;fill:#94939a;fill-opacity:0.65476;fill-rule:evenodd;stroke-width:0.899791"
         cx="561.37"
         cy="401.99121"
         rx="5.7948799"
         ry="6.0402136" />
      <path
         id="path53271"
         inkscape:connector-curvature="0"
         style="color:#000000;fill:#fbfbfc;fill-rule:evenodd"
         d="m 45.404,445.459 c 3.670605,26.49449 14.399363,-1.25924 25.244375,17.70875 19.82708,-13.48793 5.639193,10.8265 9.353125,20.9475 -11.838012,-5.80027 -24.824523,0.33214 -29.3575,2.38375 23.889322,-13.37787 -9.460942,-20.1633 -5.24,-41.04 z m 16.593,-42.8 c 10.492946,12.52909 19.816421,30.10035 -0.874,17.47 -11.009312,4.17444 8.251577,-13.78881 0.874,-17.47 z m 413.28,-375.76 c 66.86885,27.443768 124.6868,76.73894 161.57,138.98 -21.69229,9.52023 -33.64599,-53.18016 -40.42625,-24.40375 16.1985,17.44008 -5.29358,23.14055 -6.00875,-0.3075 -1.48767,-19.89511 -39.64767,-58.491104 -49.7125,-42.2975 8.6222,26.54729 -6.20333,-7.192678 -6.71625,11.44625 C 533.74912,93.625257 552.86594,81.659596 524.74134,81.152652 509.72496,66.228309 496.58894,88.232125 486.29231,65.053766 477.69738,50.406064 446.07685,66.17434 468.56466,48.288594 453.71857,46.704368 426.24787,58.467536 452.08262,42.134172 464.42714,43.410294 479.6718,44.236606 475.277,26.899 Z M 177.357,42.225 C 253.56988,0.39373477 345.91454,-11.479157 429.867,11.764 413.06176,24.944962 386.44081,8.6528917 380.93966,24.949281 359.83782,12.577386 369.52416,50.253794 350.66716,24.659172 319.76181,23.743309 370.57023,7.0750609 343.01825,6.8191563 328.09842,1.3732533 330.31112,27.300785 326.827,19.588 317.57887,32.763833 310.33534,3.4009102 297.992,11.999875 275.26744,15.820038 240.9587,16.826798 242.927,44.587 219.2388,39.400394 195.58126,68.45704 177.6979,60.222244 178.85703,54.285151 178.22134,48.149106 177.357,42.225 Z m 502.34,237.55 c -7.17677,-38.73928 -19.6647,-77.65475 -41.74125,-110.39328 -16.77044,3.33687 -13.0038,27.79111 5.15844,32.91781 -14.65771,18.38147 20.39346,18.02994 16.27953,41.56016 1.42786,14.29968 2.29323,33.13624 20.30328,35.91531 z m -33.2,205.98 c -4.18822,4.95179 -26.14946,46.36506 -34.1425,37.2975 11.01874,-12.04129 18.17426,-31.02706 34.1425,-37.2975 z m -55.58,35.82 c -20.43417,32.50457 -21.93285,-10.81594 2.82375,-11.74078 0.19089,4.10782 -1.49577,7.95717 -2.82375,11.74078 z m 24.7,-22.23 c 4.13939,20.48561 -42.03516,25.87183 -30.56906,46.045 12.1716,-12.21652 30.71934,-27.01971 30.56906,-46.045 z m -451.75,127.33 c 95.30056,58.48703 219.21317,65.18492 320.9,19.21 -28.83685,-15.78297 -46.28134,20.2583 -73.8925,1.95969 -18.49086,0.39412 -40.06876,0.56252 -58.55125,0.58656 7.13246,20.14651 -33.20569,-0.59441 -26.58938,-16.58766 -9.53355,6.89268 -14.96182,18.94608 -29.77687,11.86516 -13.91693,12.88985 -39.26282,6.15245 -53.4425,1.25313 -3.36923,-7.39173 -19.53134,-13.03631 -14.90045,-19.4493 -15.70968,1.26057 -56.45935,-23.78332 -27.1783,2.32367 -3.96597,20.03892 -28.04963,-12.79524 -36.56875,-1.16125 z m 408.14,-269.42 c -14.02208,-4.72896 -3.31518,-33.11546 -21.83,-16.59 4.07893,11.35948 -23.869,30.44692 0.87,20.08 8.58695,-21.07255 18.8648,14.92888 20.96,-3.49 z" />
      <path
         id="path25470"
         style="color:#000000;fill:#5f5e64;fill-rule:evenodd"
         inkscape:connector-curvature="0"
         d="m 534.019,76.919 c -14.35007,-23.083907 -21.94126,4.843181 0,0 z" />
      <path
         id="path37191"
         inkscape:connector-curvature="0"
         style="color:#000000;fill:#98989e;fill-rule:evenodd"
         d="m 582.279,241.319 c 18.99153,6.37077 24.94609,28.59361 28.41,37.05 11.72664,16.81483 -17.44974,20.09477 -6.97313,33.51063 -9.18661,-10.60743 -24.54091,1.61318 -5.52937,-8.76344 -4.88807,-9.77779 17.15402,-15.92771 -2.71922,-23.71641 C 577.9899,280.45007 568.67716,250.5677 582.279,241.319 Z" />
      <ellipse
         id="path37919"
         style="color:#000000;fill:#e7e6e8;fill-rule:evenodd;stroke-width:0.244004"
         transform="matrix(0.55686824,0.83060085,-0.83057926,0.55690043,0,0)"
         cx="548.53619"
         cy="-341.82861"
         rx="1.8525612"
         ry="1.3894292" />
      <ellipse
         id="path16675"
         style="color:#000000;opacity:0.59585;fill:url(#radialGradient31693);fill-rule:evenodd;stroke-width:1.87144"
         transform="matrix(0.95939346,-0.28207125,0.34935443,0.93699065,0,0)"
         cx="92.145279"
         cy="639.50989"
         rx="19.630671"
         ry="16.431448" />
      <ellipse
         id="path7185"
         style="color:#000000;opacity:0.84974;fill:#ffffff;fill-rule:evenodd;stroke-width:0.923828"
         transform="matrix(0.95939566,-0.28206378,0.34935724,0.93698961,0,0)"
         cx="92.125801"
         cy="639.51544"
         rx="9.690609"
         ry="8.1113071" />
      <g
         id="g2440"
         transform="translate(-32.881,-34.671)">
        <path
           id="path34241"
           style="fill:#a8a7aa;fill-opacity:0.86706;fill-rule:evenodd"
           inkscape:connector-curvature="0"
           d="m 318.45,271.4 c -0.16214,-20.92406 6.687,-51.30452 -0.27625,-66.47578 -7.88917,19.84595 10.10582,65.30511 -15.49594,66.6425 7.91437,-16.9 2.96631,-66.9689 -6.33781,-63.62672 1.23549,17.57786 17.79847,79.01855 -16.7008,56.76814 7.36632,-7.86134 -9.64634,-26.22089 14.81064,-20.9222 12.26855,-29.10829 -27.75314,1.31784 -19.48734,-23.21594 -13.97309,-23.53135 6.7471,33.20906 -7.32125,40.20141 C 255.42228,283.54638 216.4482,242.90426 213.65,251.32 c 9.27213,5.11365 42.62726,26.75587 13.79875,16.98 -14.72867,-11.29538 -39.34814,-13.18437 -11.15584,-1.08871 17.76348,5.24043 26.04341,20.51172 0.95537,11.27918 -18.98307,-2.06431 26.36512,8.61693 -0.93021,14.62406 15.40393,-2.85432 29.99802,-10.81327 21.33193,13.14547 18.81856,11.17847 5.9871,10.37627 -4.46953,15.71234 10.3373,5.64953 45.22252,-5.01793 16.48203,4.22391 -9.39089,5.81125 -53.66231,-3.47265 -22.02,6.68125 27.43966,6.77058 -16.51622,-4.5438 -7.48734,16.30984 4.23815,25.22891 39.78685,23.92816 45.6455,49.38664 6.90787,-14.0117 -17.32003,-39.18636 4.26668,-18.24851 9.30208,-10.61557 16.25113,2.56332 10.76616,-16.33656 21.35669,-3.27922 12.99131,38.54865 -2.051,33.21109 -7.70563,17.21101 5.69979,20.06568 12.84484,23.87594 13.15534,8.60401 27.90573,43.31013 26.36188,36.43703 17.01324,-8.42838 12.87943,-25.75487 1.50984,-36.74781 18.7293,-5.38582 6.06783,-42.36969 2.81047,-14.43985 0.40775,-13.9538 -24.15199,-48.80981 -8.34953,-54.85281 14.43274,9.93026 62.91538,2.73449 23.09,-5.7625 -18.61007,10.46032 -42.88566,-21.7819 -10.33,-11.84 14.34669,21.63352 21.33703,6.07069 27.4898,-7.91814 -20.48348,-9.22293 16.81421,-16.69611 -10.27949,-20.13639 -2.36433,-2.88828 6.71096,-32.15468 -13.15031,-26.64547 -13.72357,8.82248 5.42353,-23.41982 -12.33,-7.77 z" />
        <path
           id="path34243"
           style="color:#000000;fill:#b9b8ba;fill-rule:evenodd"
           inkscape:connector-curvature="0"
           d="m 293.99,293.24 c -6.42647,-23.53442 -41.09707,-6.26338 -9.8325,1.425 -4.40629,23.83597 -31.19697,-3.85644 -31.74203,-19.18766 -1.25089,12.04766 -2.17477,18.27526 -5.09172,29.34766 9.52442,5.2186 15.80429,4.25537 12.90625,10.785 29.41685,-3.12865 -13.36023,32.28392 11.05,22.48 1.37434,17.25826 11.73418,18.97419 26.76016,25.29703 C 297.85038,347.81209 262.23553,335.36562 282.58,324.49 c 22.15195,-5.39492 40.91041,-8.36212 61.04266,1.84703 -4.26369,-11.37341 -24.85707,-13.61154 -5.7636,-18.42547 -3.51576,-20.15263 -21.69623,25.99617 -35.17406,-1.17406 22.32155,0.38907 -13.05587,-40.77084 -8.695,-13.4975 z" />
        <path
           id="path34245"
           style="color:#000000;fill:#e5e5e6;fill-rule:evenodd"
           inkscape:connector-curvature="0"
           d="m 294.87,304.59 c -24.61408,-5.74379 -20.13675,27.89817 5.165,16.35 7.03775,-4.83596 2.21679,-15.16865 -5.165,-16.35 z" />
        <path
           id="path34247"
           style="color:#000000;fill:#a8a7aa;fill-opacity:0.86706;fill-rule:evenodd"
           inkscape:connector-curvature="0"
           d="m 216.27,302.84 c -16.91092,-14.65099 -6.61184,-33.1882 -21.44887,-42.41717 2.73165,-16.87196 -10.60576,-28.82657 9.93637,-20.70158 -15.41771,-27.78376 52.64432,-4.20941 33.19525,-32.17059 -8.31635,4.18981 -53.00579,4.14935 -24.30275,-4.26066 31.84075,-14.07039 -19.61601,-13.67047 -24.58094,-23.64297 5.69751,-10.61094 1.36886,-32.4952 -4.21206,-10.47905 -5.53312,24.87659 -45.65604,6.82028 -41.88819,32.59411 -14.41118,5.15315 -49.491951,37.21096 -42.26168,38.95014 22.16898,-6.37746 57.00731,-56.87976 71.45607,-29.43841 -6.03477,23.48927 -30.8754,22.95503 -44.15933,20.55493 14.283,8.66567 20.40153,17.58817 13.17057,32.68995 6.13554,-4.35376 16.86361,-17.7843 13.77556,-0.5087 1.92033,-21.86862 15.5611,3.52451 26.27516,-3.61357 -4.20627,18.68303 -49.05833,29.19131 -12.03682,43.69492 20.28636,25.10387 -69.344646,13.31026 -21.84672,20.14455 38.12715,-3.47119 -25.85281,20.0756 5.55213,16.56035 19.80001,-18.40428 26.06317,36.4245 37.26275,11.99018 -9.14842,-20.87738 10.81519,-14.89983 9.0535,1.35357 7.77596,-16.13168 19.50577,-32.41505 17.06,-51.3 z" />
        <path
           id="path34249"
           style="color:#000000;fill:#b9b8ba;fill-rule:evenodd"
           inkscape:connector-curvature="0"
           d="m 212.77,312.45 c -13.77798,8.11565 -22.02786,-33.04895 -24.21281,-3.25719 -9.88738,0.93502 -13.8148,5.71983 -10.83594,11.63969 -22.11249,1.90904 -12.15127,4.55446 3.94844,3.13813 2.25494,15.71672 16.25075,9.48209 19.49031,5.79937 9.84698,-3.67005 13.37236,-1.03652 6.03,-8.85 22.35036,-1.34812 -7.84545,0.91039 4.54,-7.47 z" />
        <path
           id="path34251"
           style="color:#000000;fill:#f3f3f4;fill-rule:evenodd"
           inkscape:connector-curvature="0"
           d="m 173.48,226.87 c -16.12425,5.25869 -25.63631,14.2053 -1.75,7.86 4.36382,0.60636 3.23548,-6.40441 1.75,-7.86 z" />
        <path
           id="path34253"
           style="color:#000000;fill:#e5e5e6;fill-rule:evenodd"
           inkscape:connector-curvature="0"
           d="m 174.35,216.39 c 1.04604,21.05285 -13.16804,-10.52491 0,0 z" />
        <path
           id="path34255"
           style="color:#000000;fill:#e5e5e6;fill-rule:evenodd"
           inkscape:connector-curvature="0"
           d="m 195.31,315.94 c -12.19911,7.02693 10.62267,9.54267 0,0 z" />
      </g>
    </g>
    <g
       id="g31291"
       transform="matrix(0.11369609,0,0,0.11516752,-2.6663349,-2.9244613)">
      <circle
         id="path21796"
         style="color:#000000;fill:url(#radialGradient31695);fill-rule:evenodd"
         transform="matrix(1.0029,0,0,0.9889,-7.3315,14.608)"
         cx="381.48129"
         cy="362.48032"
         r="350.78738" />
    </g>
  </g>
  <metadata
     id="metadata114">
    <rdf:RDF>
      <cc:Work>
        <dc:format>image/svg+xml</dc:format>
        <dc:type
           rdf:resource="http://purl.org/dc/dcmitype/StillImage" />
        <cc:license
           rdf:resource="http://creativecommons.org/publicdomain/zero/1.0/" />
        <dc:publisher>
          <cc:Agent
             rdf:about="http://openclipart.org/">
            <dc:title>Openclipart</dc:title>
          </cc:Agent>
        </dc:publisher>
      </cc:Work>
      <cc:License
         rdf:about="http://creativecommons.org/publicdomain/zero/1.0/">
        <cc:permits
           rdf:resource="http://creativecommons.org/ns#Reproduction" />
        <cc:permits
           rdf:resource="http://creativecommons.org/ns#Distribution" />
        <cc:permits
           rdf:resource="http://creativecommons.org/ns#DerivativeWorks" />
      </cc:License>
    </rdf:RDF>
  </metadata>
</svg>
